<svg width="74" height="74" viewBox="0 0 74 74" fill="none" xmlns="http://www.w3.org/2000/svg">
<path d="M74 0L37 37L0 74V41L41 0H74Z" fill="#D22856"/>
<path d="M27.9191 37.223L26.9862 38.1559L21.9785 36.9475L23.1531 41.9891L22.283 42.8592L20.9392 36.817L15.3756 35.6327L16.2843 34.724L20.8377 35.7681L19.8081 31.2002L20.683 30.3253L21.8383 35.8599L27.9191 37.223Z" fill="white"/>
<path d="M21.8721 29.1362L22.6407 28.3676L26.5705 32.2974C27.2956 33.0225 27.9288 33.7008 28.4702 34.3324L28.5088 34.2938L26.5753 24.433L27.4744 23.5339L34.5413 30.6008L33.7679 31.3742L29.8768 27.483C29.2291 26.8353 28.5765 26.128 27.9191 25.361L27.8756 25.4045L29.8381 35.304L28.939 36.2031L21.8721 29.1362Z" fill="white"/>
<path d="M38.6549 26.4873L37.8331 27.309L31.4961 20.972L29.2581 23.21L28.5282 22.4801L33.826 17.1823L34.5558 17.9122L32.3178 20.1503L38.6549 26.4873Z" fill="white"/>
</svg>
